{"glyphs":{"0":{"ha":1017,"x_min":75,"x_max":1129,"o":"m 475 0 q 176 139 278 0 q 127 475 75 278 q 356 810 180 671 q 729 949 532 949 q 1027 810 926 949 q 1077 475 1129 671 q 848 139 1024 278 q 475 0 671 0 m 547 271 q 707 331 631 271 q 806 475 783 391 q 784 618 828 559 q 656 678 741 678 q 497 618 572 678 q 399 475 421 559 q 419 331 376 391 q 547 271 463 271 z "},"1":{"ha":339,"x_min":0,"x_max":526,"o":"m 526 949 l 271 0 l 0 0 l 254 949 l 526 949 z "},"2":{"ha":949,"x_min":0,"x_max":1136,"o":"m 729 949 q 1053 638 1136 949 q 566 339 972 339 l 498 339 q 355 311 362 339 l 344 271 l 954 271 l 882 0 l 0 0 l 83 311 q 570 610 163 610 l 706 610 q 781 638 774 610 q 724 678 792 678 l 182 678 l 254 949 l 729 949 z "},"3":{"ha":949,"x_min":0,"x_max":1136,"o":"m 873 475 q 954 271 1009 475 q 475 0 882 0 l 0 0 l 73 271 l 615 271 q 692 305 683 271 q 633 339 701 339 l 362 339 l 435 610 l 706 610 q 783 644 774 610 q 724 678 792 678 l 182 678 l 254 949 l 729 949 q 1063 678 1136 949 q 873 475 1009 475 z "},"4":{"ha":1017,"x_min":37,"x_max":1136,"o":"m 792 678 l 584 407 l 720 407 l 792 678 m 918 136 l 882 0 l 610 0 l 647 136 l 37 136 l 729 949 l 1136 949 l 991 407 l 1059 407 l 986 136 l 918 136 z "},"5":{"ha":949,"x_min":0,"x_max":1136,"o":"m 0 0 l 73 271 l 615 271 q 694 311 683 271 q 633 339 701 339 l 91 339 l 254 949 l 1136 949 l 1063 678 l 453 678 l 435 610 l 638 610 q 965 311 1045 610 q 475 0 882 0 l 0 0 z "},"6":{"ha":949,"x_min":0,"x_max":1045,"o":"m 633 271 q 692 305 683 271 q 652 339 701 339 l 412 339 q 353 305 362 339 q 393 271 344 271 l 633 271 m 521 678 q 435 610 453 678 l 638 610 q 965 311 1045 610 q 475 0 882 0 l 407 0 q 83 311 0 0 l 182 679 q 526 949 254 949 l 1000 949 l 928 678 l 521 678 z "},"7":{"ha":949,"x_min":0,"x_max":1136,"o":"m 1063 678 l 339 0 l 0 0 l 724 678 l 182 678 l 254 949 l 1136 949 l 1063 678 z "},"8":{"ha":949,"x_min":0,"x_max":1136,"o":"m 638 610 q 783 644 774 610 q 656 678 792 678 l 589 678 q 444 642 452 676 q 555 610 435 610 l 638 610 m 479 271 l 547 271 q 692 307 684 273 q 581 339 701 339 l 498 339 q 353 305 362 339 q 479 271 344 271 m 263 475 q 182 678 127 475 q 661 949 254 949 l 729 949 q 1063 678 1136 949 q 873 475 1009 475 q 954 271 1009 475 q 475 0 882 0 l 407 0 q 73 271 0 0 q 263 475 127 475 z "},"9":{"ha":949,"x_min":91,"x_max":1136,"o":"m 729 949 q 1053 638 1136 949 l 882 0 l 610 0 l 701 339 l 498 339 q 171 638 91 339 q 661 949 254 949 l 729 949 m 503 678 q 444 644 453 678 q 484 610 435 610 l 724 610 q 783 644 774 610 q 743 678 792 678 l 503 678 z "},"\u0000":{"ha":0,"x_min":0,"x_max":0,"o":""}," ":{"ha":345,"x_min":0,"x_max":0,"o":""},"!":{"ha":339,"x_min":-10,"x_max":616,"o":"m 109 407 l 345 1289 l 616 1289 l 380 407 l 109 407 m 224 339 q 331 290 294 339 q 348 170 367 240 q 266 50 329 99 q 133 0 203 0 q 26 50 62 0 q 9 170 -10 99 q 91 290 28 240 q 224 339 153 339 z "},"\"":{"ha":746,"x_min":213,"x_max":932,"o":"m 593 949 l 484 543 l 213 543 l 322 949 l 593 949 m 932 949 l 823 543 l 552 543 l 661 949 l 932 949 z "},"#":{"ha":1085,"x_min":104,"x_max":1236,"o":"m 245 407 l 281 543 l 213 543 l 286 814 l 354 814 l 390 949 l 661 949 l 625 814 l 897 814 l 932 949 l 1204 949 l 1168 814 l 1236 814 l 1162 543 l 1095 543 l 1059 407 l 1126 407 l 1054 136 l 986 136 l 949 0 l 678 0 l 715 136 l 444 136 l 407 0 l 136 0 l 172 136 l 104 136 l 177 407 l 245 407 m 552 543 l 516 407 l 787 407 l 823 543 l 552 543 z "},"$":{"ha":1017,"x_min":68,"x_max":1204,"o":"m 661 949 l 698 1085 l 969 1085 l 932 949 l 1204 949 l 1131 678 l 589 678 q 513 647 521 678 q 570 610 503 610 l 774 610 q 1032 308 1113 610 q 679 3 958 33 l 642 -136 l 370 -136 l 407 0 l 68 0 l 140 271 l 683 271 q 761 308 751 271 q 701 339 769 339 l 498 339 q 241 647 159 339 q 661 949 322 949 z "},"%":{"ha":1017,"x_min":68,"x_max":1204,"o":"m 1204 949 l 374 0 l 68 0 l 901 949 l 1204 949 m 367 610 q 282 650 311 610 q 268 746 253 690 q 333 842 283 802 q 439 882 383 882 q 525 842 496 882 q 539 746 554 802 q 474 650 524 690 q 367 610 423 610 m 832 68 q 747 107 776 68 q 732 203 718 147 q 798 299 748 260 q 905 339 848 339 q 990 299 961 339 q 1004 203 1019 260 q 939 107 989 147 q 832 68 888 68 z "},"&":{"ha":814,"x_min":159,"x_max":909,"o":"m 706 610 l 909 610 l 837 339 l 633 339 l 579 136 l 308 136 l 362 339 l 159 339 l 231 610 l 435 610 l 490 814 l 761 814 l 706 610 z "},"'":{"ha":407,"x_min":213,"x_max":593,"o":"m 593 949 l 484 543 l 213 543 l 322 949 l 593 949 z "},"(":{"ha":678,"x_min":31,"x_max":833,"o":"m 231 610 q 833 1085 359 1085 l 761 814 q 503 610 557 814 l 430 339 q 579 136 376 136 l 506 -136 q 159 339 31 -136 l 231 610 z "},")":{"ha":678,"x_min":99,"x_max":901,"o":"m 701 339 q 99 -136 574 -136 l 172 136 q 430 339 376 136 l 503 610 q 354 814 557 814 l 427 1085 q 774 610 901 1085 l 701 339 z "},"*":{"ha":814,"x_min":195,"x_max":946,"o":"m 743 746 l 946 746 l 873 475 l 670 475 l 615 271 l 344 271 l 399 475 l 195 475 l 268 746 l 471 746 l 526 949 l 797 949 l 743 746 z "},"+":{"ha":814,"x_min":159,"x_max":909,"o":"m 706 610 l 909 610 l 837 339 l 633 339 l 579 136 l 308 136 l 362 339 l 159 339 l 231 610 l 435 610 l 490 814 l 761 814 l 706 610 z "},",":{"ha":407,"x_min":14,"x_max":412,"o":"m 412 271 l 285 -203 l 14 -203 l 140 271 l 412 271 z "},"-":{"ha":814,"x_min":159,"x_max":909,"o":"m 909 610 l 837 339 l 159 339 l 231 610 l 909 610 z "},".":{"ha":407,"x_min":89,"x_max":391,"o":"m 203 0 q 118 40 147 0 q 104 136 89 79 q 170 232 119 192 q 276 271 220 271 q 361 232 332 271 q 376 136 391 192 q 310 40 360 79 q 203 0 260 0 z "},"/":{"ha":1017,"x_min":-9,"x_max":1210,"o":"m 1210 1085 l 274 -136 l -9 -136 l 935 1085 l 1210 1085 z "},":":{"ha":407,"x_min":125,"x_max":536,"o":"m 240 136 q 155 175 184 136 q 140 271 125 215 q 206 367 155 328 q 313 407 256 407 q 398 367 369 407 q 412 271 427 328 q 347 175 397 215 q 240 136 296 136 m 349 543 q 263 582 292 543 q 250 678 235 622 q 315 774 264 734 q 422 814 366 814 q 507 774 478 814 q 521 678 536 734 q 455 582 506 622 q 349 543 405 543 z "},";":{"ha":407,"x_min":50,"x_max":557,"o":"m 557 814 l 484 543 l 213 543 l 286 814 l 557 814 m 448 407 l 321 -68 l 50 -68 l 177 407 l 448 407 z "},"<":{"ha":882,"x_min":159,"x_max":1068,"o":"m 231 610 l 1068 949 l 996 678 l 467 475 l 886 271 l 814 0 l 159 339 l 231 610 z "},"=":{"ha":814,"x_min":104,"x_max":964,"o":"m 964 814 l 891 543 l 213 543 l 286 814 l 964 814 m 855 407 l 783 136 l 104 136 l 177 407 l 855 407 z "},">":{"ha":882,"x_min":68,"x_max":977,"o":"m 905 339 l 68 0 l 140 271 l 670 475 l 250 678 l 322 949 l 977 610 l 905 339 z "},"?":{"ha":1017,"x_min":250,"x_max":1204,"o":"m 430 339 l 503 610 l 706 610 q 781 638 774 610 q 724 678 792 678 l 250 678 l 322 949 l 797 949 q 1120 638 1204 949 q 633 339 1040 339 l 430 339 m 475 0 q 389 40 418 0 q 376 136 360 79 q 441 232 391 192 q 547 271 491 271 q 633 232 604 271 q 647 136 662 192 q 581 40 631 79 q 475 0 531 0 z "},"@":{"ha":1017,"x_min":48,"x_max":1168,"o":"m 566 288 q 417 243 500 243 q 316 288 340 243 q 311 365 298 319 q 328 409 316 385 q 513 625 386 531 q 759 719 640 719 q 911 667 820 719 q 770 469 793 507 q 734 404 747 431 q 727 388 729 395 q 732 374 724 374 q 845 437 782 374 q 949 587 907 500 q 982 663 973 629 q 972 757 998 722 q 831 813 931 813 q 514 694 673 813 q 269 395 355 576 q 241 323 250 357 q 245 206 222 254 q 386 135 278 135 q 509 155 443 135 q 640 222 574 174 l 673 111 q 486 28 585 57 q 309 0 387 0 q 87 106 141 0 q 77 286 48 180 q 113 382 89 331 q 455 786 230 624 q 909 948 680 948 q 1129 857 1074 948 q 1143 695 1168 792 q 1109 607 1131 654 q 914 358 1042 467 q 664 250 787 250 q 566 288 581 250 m 698 601 q 586 543 650 601 q 488 416 522 484 q 481 397 484 406 q 498 372 475 372 q 566 399 530 372 q 634 473 602 426 q 715 595 666 519 q 698 601 712 601 z "},"A":{"ha":1017,"x_min":0,"x_max":949,"o":"m 355 136 l 271 0 l 0 0 l 593 949 l 865 949 l 949 0 l 678 0 l 667 136 l 355 136 m 652 407 l 638 610 l 516 407 l 652 407 z "},"B":{"ha":949,"x_min":0,"x_max":1136,"o":"m 0 0 l 254 949 l 729 949 q 1054 644 1136 949 q 873 475 1009 475 q 962 301 1009 475 q 475 0 882 0 l 0 0 m 453 678 l 435 610 l 706 610 q 783 644 774 610 q 724 678 792 678 l 453 678 m 362 339 l 344 271 l 615 271 q 692 305 683 271 q 633 339 701 339 l 362 339 z "},"C":{"ha":1017,"x_min":75,"x_max":1091,"o":"m 848 139 q 475 0 671 0 q 176 139 278 0 q 127 475 75 278 q 356 810 180 671 q 729 949 532 949 q 1027 810 926 949 q 1091 656 1079 741 l 812 540 q 784 618 810 583 q 656 678 741 678 q 497 618 572 678 q 399 475 421 559 q 419 331 376 391 q 547 271 463 271 q 707 331 631 271 q 774 404 749 363 l 994 294 q 848 139 937 209 z "},"D":{"ha":949,"x_min":0,"x_max":1136,"o":"m 0 0 l 254 949 l 729 949 q 1009 475 1136 949 q 475 0 882 0 l 0 0 m 453 678 l 344 271 l 547 271 q 738 475 683 271 q 656 678 792 678 l 453 678 z "},"E":{"ha":814,"x_min":0,"x_max":1000,"o":"m 1000 949 l 928 678 l 453 678 l 435 610 l 909 610 l 837 339 l 362 339 l 344 271 l 819 271 l 746 0 l 0 0 l 254 949 l 1000 949 z "},"F":{"ha":814,"x_min":-73,"x_max":1000,"o":"m 1000 949 l 928 678 l 453 678 l 435 610 l 909 610 l 837 339 l 362 339 l 271 0 l -73 -271 l 254 949 l 1000 949 z "},"G":{"ha":1017,"x_min":75,"x_max":1113,"o":"m 690 44 q 475 0 586 0 q 176 139 278 0 q 127 475 75 278 q 356 810 180 671 q 729 949 532 949 q 1027 810 926 949 q 1046 784 1037 798 l 765 640 q 656 678 724 678 q 497 618 572 678 q 399 475 421 559 q 419 331 376 391 q 547 271 463 271 q 707 331 631 271 q 717 339 712 335 l 566 339 l 638 610 l 1113 610 l 949 0 l 606 -271 l 690 44 z "},"H":{"ha":949,"x_min":-54,"x_max":1136,"o":"m 254 949 l 526 949 l 435 610 l 774 610 l 865 949 l 1136 949 l 882 0 l 610 0 l 701 339 l 362 339 l 271 0 l -54 -203 l 254 949 z "},"I":{"ha":339,"x_min":0,"x_max":526,"o":"m 526 949 l 271 0 l 0 0 l 254 949 l 526 949 z "},"J":{"ha":882,"x_min":31,"x_max":1068,"o":"m 797 949 l 1068 949 l 941 475 q 407 0 814 0 q 111 406 31 0 l 385 406 q 479 271 369 271 q 670 475 615 271 l 797 949 z "},"K":{"ha":949,"x_min":-73,"x_max":1136,"o":"m 435 610 l 797 949 l 1136 949 l 620 475 l 882 0 l 543 0 l 362 339 l 271 0 l -73 -271 l 254 949 l 526 949 l 435 610 z "},"L":{"ha":678,"x_min":0,"x_max":683,"o":"m 254 949 l 526 949 l 344 271 l 683 271 l 610 0 l 0 0 l 254 949 z "},"M":{"ha":1153,"x_min":0,"x_max":1339,"o":"m 1339 949 l 1085 0 l 814 0 l 935 452 l 678 0 l 407 0 l 392 450 l 271 0 l 0 0 l 254 949 l 593 949 l 652 407 l 1000 949 l 1339 949 z "},"N":{"ha":949,"x_min":-73,"x_max":1136,"o":"m 399 475 l 271 0 l -73 -271 l 254 949 l 526 949 l 738 475 l 865 949 l 1136 949 l 882 0 l 610 0 l 399 475 z "},"O":{"ha":1017,"x_min":75,"x_max":1129,"o":"m 475 0 q 176 139 278 0 q 127 475 75 278 q 356 810 180 671 q 729 949 532 949 q 1027 810 926 949 q 1077 475 1129 671 q 848 139 1024 278 q 475 0 671 0 m 547 271 q 707 331 631 271 q 806 475 783 391 q 784 618 828 559 q 656 678 741 678 q 497 618 572 678 q 399 475 421 559 q 419 331 376 391 q 547 271 463 271 z "},"P":{"ha":949,"x_min":-73,"x_max":1136,"o":"m 362 339 l 271 0 l -73 -271 l 254 949 l 797 949 q 1053 642 1136 949 q 633 339 972 339 l 362 339 m 453 678 l 435 610 l 706 610 q 783 644 774 610 q 724 678 792 678 l 453 678 z "},"Q":{"ha":1017,"x_min":75,"x_max":1129,"o":"m 707 331 q 745 361 707 331 q 806 475 783 391 q 784 618 828 559 q 656 678 741 678 q 497 618 572 678 q 399 475 421 559 q 419 331 376 391 q 547 271 463 271 q 707 331 631 271 m 690 44 q 475 0 586 0 q 176 139 278 0 q 127 475 75 278 q 356 810 180 671 q 729 949 532 949 q 1027 810 926 949 q 1077 475 1129 671 l 949 0 l 606 -271 l 690 44 z "},"R":{"ha":949,"x_min":-73,"x_max":1136,"o":"m 453 678 l 435 610 l 706 610 q 783 644 774 610 q 724 678 792 678 l 453 678 m 362 339 l 271 0 l -73 -271 l 254 949 l 797 949 q 1053 642 1136 949 q 701 339 972 339 l 882 0 l 543 0 l 362 339 z "},"S":{"ha":949,"x_min":91,"x_max":1136,"o":"m 430 339 q 174 647 91 339 q 593 949 254 949 l 1136 949 l 1063 678 l 521 678 q 445 647 453 678 q 503 610 435 610 l 706 610 q 964 308 1045 610 q 543 0 882 0 l 136 0 l 208 271 l 615 271 q 693 308 683 271 q 633 339 701 339 l 430 339 z "},"T":{"ha":882,"x_min":182,"x_max":1068,"o":"m 724 678 l 543 0 l 199 -271 l 453 678 l 182 678 l 254 949 l 1068 949 l 996 678 l 724 678 z "},"U":{"ha":882,"x_min":0,"x_max":1068,"o":"m 127 475 l 254 949 l 526 949 l 399 475 q 479 271 344 271 q 670 475 615 271 l 797 949 l 1068 949 l 941 475 q 407 0 814 0 q 127 475 0 0 z "},"V":{"ha":1017,"x_min":254,"x_max":1204,"o":"m 339 0 l 254 949 l 526 949 l 584 407 l 932 949 l 1204 949 l 610 0 l 339 0 z "},"W":{"ha":1560,"x_min":254,"x_max":1746,"o":"m 873 475 l 610 0 l 339 0 l 254 949 l 526 949 l 584 407 l 865 949 l 1136 949 l 1126 407 l 1475 949 l 1746 949 l 1153 0 l 882 0 l 873 475 z "},"X":{"ha":1017,"x_min":0,"x_max":1204,"o":"m 450 475 l 254 949 l 562 949 l 661 703 l 896 949 l 1204 949 l 758 473 l 949 0 l 648 0 l 536 245 l 310 0 l 0 0 l 450 475 z "},"Y":{"ha":1017,"x_min":254,"x_max":1204,"o":"m 448 407 l 254 949 l 544 949 l 656 678 l 914 949 l 1204 949 l 720 407 l 610 0 l 267 -271 l 448 407 z "},"Z":{"ha":882,"x_min":0,"x_max":1068,"o":"m 1068 949 l 523 271 l 886 271 l 814 0 l 0 0 l 551 678 l 182 678 l 254 949 l 1068 949 z "},"[":{"ha":678,"x_min":31,"x_max":833,"o":"m 833 1085 l 761 814 l 557 814 l 376 136 l 579 136 l 506 -136 l 31 -136 l 359 1085 l 833 1085 z "},"\\":{"ha":1017,"x_min":318,"x_max":882,"o":"m 593 1085 l 882 -136 l 599 -136 l 318 1085 l 593 1085 z "},"]":{"ha":678,"x_min":99,"x_max":901,"o":"m 901 1085 l 574 -136 l 99 -136 l 172 136 l 376 136 l 557 814 l 354 814 l 427 1085 l 901 1085 z "},"^":{"ha":746,"x_min":163,"x_max":842,"o":"m 797 949 l 842 610 l 570 610 l 548 780 l 435 610 l 163 610 l 390 949 l 797 949 z "},"_":{"ha":949,"x_min":68,"x_max":954,"o":"m 954 271 l 882 0 l 68 0 l 140 271 l 954 271 z "},"`":{"ha":475,"x_min":363,"x_max":680,"o":"m 363 1356 l 635 1356 l 680 1017 l 408 1017 l 363 1356 z "},"a":{"ha":1017,"x_min":0,"x_max":949,"o":"m 355 136 l 271 0 l 0 0 l 593 949 l 865 949 l 949 0 l 678 0 l 667 136 l 355 136 m 652 407 l 638 610 l 516 407 l 652 407 z "},"b":{"ha":949,"x_min":0,"x_max":1136,"o":"m 0 0 l 254 949 l 729 949 q 1054 644 1136 949 q 873 475 1009 475 q 962 301 1009 475 q 475 0 882 0 l 0 0 m 453 678 l 435 610 l 706 610 q 783 644 774 610 q 724 678 792 678 l 453 678 m 362 339 l 344 271 l 615 271 q 692 305 683 271 q 633 339 701 339 l 362 339 z "},"c":{"ha":1017,"x_min":75,"x_max":1091,"o":"m 848 139 q 475 0 671 0 q 176 139 278 0 q 127 475 75 278 q 356 810 180 671 q 729 949 532 949 q 1027 810 926 949 q 1091 656 1079 741 l 812 540 q 784 618 810 583 q 656 678 741 678 q 497 618 572 678 q 399 475 421 559 q 419 331 376 391 q 547 271 463 271 q 707 331 631 271 q 774 404 749 363 l 994 294 q 848 139 937 209 z "},"d":{"ha":949,"x_min":0,"x_max":1136,"o":"m 0 0 l 254 949 l 729 949 q 1009 475 1136 949 q 475 0 882 0 l 0 0 m 453 678 l 344 271 l 547 271 q 738 475 683 271 q 656 678 792 678 l 453 678 z "},"e":{"ha":814,"x_min":0,"x_max":1249,"o":"m 1000 949 l 928 678 l 453 678 l 435 610 l 1249 610 l 1176 339 l 362 339 l 344 271 l 819 271 l 746 0 l 0 0 l 254 949 l 1000 949 z "},"f":{"ha":814,"x_min":-73,"x_max":1181,"o":"m 1000 949 l 928 678 l 453 678 l 435 610 l 1181 610 l 1108 339 l 362 339 l 271 0 l -73 -271 l 254 949 l 1000 949 z "},"g":{"ha":1017,"x_min":75,"x_max":1113,"o":"m 690 44 q 475 0 586 0 q 176 139 278 0 q 127 475 75 278 q 356 810 180 671 q 729 949 532 949 q 1027 810 926 949 q 1046 784 1037 798 l 765 640 q 656 678 724 678 q 497 618 572 678 q 399 475 421 559 q 419 331 376 391 q 547 271 463 271 q 707 331 631 271 q 717 339 712 335 l 566 339 l 638 610 l 1113 610 l 949 0 l 606 -271 l 690 44 z "},"h":{"ha":949,"x_min":-54,"x_max":1136,"o":"m 254 949 l 526 949 l 435 610 l 774 610 l 865 949 l 1136 949 l 882 0 l 610 0 l 701 339 l 362 339 l 271 0 l -54 -203 l 254 949 z "},"i":{"ha":339,"x_min":0,"x_max":640,"o":"m 526 949 l 271 0 l 0 0 l 254 949 l 526 949 m 496 1356 q 603 1307 567 1356 q 621 1187 640 1257 q 539 1067 602 1116 q 406 1017 476 1017 q 299 1067 335 1017 q 281 1187 262 1116 q 363 1307 300 1257 q 496 1356 426 1356 z "},"j":{"ha":882,"x_min":31,"x_max":1068,"o":"m 797 949 l 1068 949 l 941 475 q 407 0 814 0 q 111 406 31 0 l 385 406 q 479 271 369 271 q 670 475 615 271 l 797 949 z "},"k":{"ha":949,"x_min":-73,"x_max":1136,"o":"m 435 610 l 797 949 l 1136 949 l 620 475 l 882 0 l 543 0 l 362 339 l 271 0 l -73 -271 l 254 949 l 526 949 l 435 610 z "},"l":{"ha":678,"x_min":0,"x_max":683,"o":"m 254 949 l 526 949 l 344 271 l 683 271 l 610 0 l 0 0 l 254 949 z "},"m":{"ha":1153,"x_min":0,"x_max":1339,"o":"m 1339 949 l 1085 0 l 814 0 l 935 452 l 678 0 l 407 0 l 392 450 l 271 0 l 0 0 l 254 949 l 593 949 l 652 407 l 1000 949 l 1339 949 z "},"n":{"ha":949,"x_min":-73,"x_max":1208,"o":"m 399 475 l 271 0 l -73 -271 l 254 949 l 526 949 l 738 475 l 865 949 l 1208 1221 l 882 0 l 610 0 l 399 475 z "},"o":{"ha":1017,"x_min":75,"x_max":1129,"o":"m 475 0 q 176 139 278 0 q 127 475 75 278 q 356 810 180 671 q 729 949 532 949 q 1027 810 926 949 q 1077 475 1129 671 q 848 139 1024 278 q 475 0 671 0 m 547 271 q 707 331 631 271 q 806 475 783 391 q 784 618 828 559 q 656 678 741 678 q 497 618 572 678 q 399 475 421 559 q 419 331 376 391 q 547 271 463 271 z "},"p":{"ha":949,"x_min":-73,"x_max":1136,"o":"m 362 339 l 271 0 l -73 -271 l 254 949 l 797 949 q 1053 642 1136 949 q 633 339 972 339 l 362 339 m 453 678 l 435 610 l 706 610 q 783 644 774 610 q 724 678 792 678 l 453 678 z "},"q":{"ha":1017,"x_min":75,"x_max":1129,"o":"m 707 331 q 745 361 707 331 q 806 475 783 391 q 784 618 828 559 q 656 678 741 678 q 497 618 572 678 q 399 475 421 559 q 419 331 376 391 q 547 271 463 271 q 707 331 631 271 m 690 44 q 475 0 586 0 q 176 139 278 0 q 127 475 75 278 q 356 810 180 671 q 729 949 532 949 q 1027 810 926 949 q 1077 475 1129 671 l 949 0 l 606 -271 l 690 44 z "},"r":{"ha":949,"x_min":-73,"x_max":1136,"o":"m 453 678 l 435 610 l 706 610 q 783 644 774 610 q 724 678 792 678 l 453 678 m 362 339 l 271 0 l -73 -271 l 254 949 l 797 949 q 1053 642 1136 949 q 701 339 972 339 l 882 0 l 543 0 l 362 339 z "},"s":{"ha":949,"x_min":91,"x_max":1136,"o":"m 430 339 q 174 647 91 339 q 593 949 254 949 l 1136 949 l 1063 678 l 521 678 q 445 647 453 678 q 503 610 435 610 l 706 610 q 964 308 1045 610 q 543 0 882 0 l 136 0 l 208 271 l 615 271 q 693 308 683 271 q 633 339 701 339 l 430 339 z "},"t":{"ha":882,"x_min":182,"x_max":1068,"o":"m 724 678 l 543 0 l 199 -271 l 453 678 l 182 678 l 254 949 l 1068 949 l 996 678 l 724 678 z "},"u":{"ha":882,"x_min":0,"x_max":1068,"o":"m 127 475 l 254 949 l 526 949 l 399 475 q 479 271 344 271 q 670 475 615 271 l 797 949 l 1068 949 l 941 475 q 407 0 814 0 q 127 475 0 0 z "},"v":{"ha":1017,"x_min":254,"x_max":1204,"o":"m 339 0 l 254 949 l 526 949 l 584 407 l 932 949 l 1204 949 l 610 0 l 339 0 z "},"w":{"ha":1560,"x_min":254,"x_max":1746,"o":"m 873 475 l 610 0 l 339 0 l 254 949 l 526 949 l 584 407 l 865 949 l 1136 949 l 1126 407 l 1475 949 l 1746 949 l 1153 0 l 882 0 l 873 475 z "},"x":{"ha":1017,"x_min":0,"x_max":1204,"o":"m 450 475 l 254 949 l 562 949 l 661 703 l 896 949 l 1204 949 l 758 473 l 949 0 l 648 0 l 536 245 l 310 0 l 0 0 l 450 475 z "},"y":{"ha":1356,"x_min":-430,"x_max":1543,"o":"m 0 0 l 254 949 l 598 1221 l 344 271 l 1204 949 l 1543 949 l 339 0 l -91 -339 l -430 -339 l 0 0 z "},"z":{"ha":882,"x_min":0,"x_max":1068,"o":"m 1068 949 l 523 271 l 886 271 l 814 0 l 0 0 l 551 678 l 182 678 l 254 949 l 1068 949 z "},"{":{"ha":814,"x_min":159,"x_max":969,"o":"m 367 610 q 969 1085 494 1085 l 897 814 q 638 610 693 814 l 566 339 q 715 136 511 136 l 642 -136 q 294 339 167 -136 l 159 339 l 231 610 l 367 610 z "},"|":{"ha":407,"x_min":31,"x_max":630,"o":"m 630 1085 l 302 -136 l 31 -136 l 359 1085 l 630 1085 z "},"}":{"ha":814,"x_min":99,"x_max":909,"o":"m 701 339 q 99 -136 574 -136 l 172 136 q 430 339 376 136 l 503 610 q 354 814 557 814 l 427 1085 q 774 610 901 1085 l 909 610 l 837 339 l 701 339 z "},"~":{"ha":814,"x_min":146,"x_max":916,"o":"m 146 294 l 219 565 q 415 599 330 599 q 558 565 500 599 q 650 543 597 543 q 916 633 755 543 l 843 361 q 578 271 683 271 q 486 294 525 271 q 342 328 427 328 q 146 294 257 328 z "},"¡":{"ha":407,"x_min":68,"x_max":572,"o":"m 503 610 l 339 0 l 68 0 l 231 610 l 503 610 m 458 949 q 543 910 514 949 q 557 814 572 870 q 492 718 542 758 q 385 678 441 678 q 300 718 329 678 q 286 814 271 758 q 351 910 301 870 q 458 949 401 949 z "},"£":{"ha":1085,"x_min":159,"x_max":1208,"o":"m 376 610 q 865 949 521 949 q 1173 610 1208 949 l 886 610 q 792 678 870 678 q 663 610 714 678 l 842 610 l 769 339 l 566 339 l 547 270 l 1090 270 l 1017 0 l 203 0 l 294 339 l 159 339 l 231 610 l 376 610 z "},"¥":{"ha":856,"x_min":172,"x_max":1204,"o":"m 647 136 l 610 0 l 339 0 l 376 136 l 172 136 l 245 407 l 448 407 l 254 949 l 544 949 l 656 678 l 914 949 l 1204 949 l 720 407 l 923 407 l 850 136 l 647 136 z "},"¨":{"ha":746,"x_min":361,"x_max":1002,"o":"m 476 1017 q 391 1057 420 1017 q 377 1153 361 1097 q 442 1249 392 1209 q 549 1289 492 1289 q 634 1249 605 1289 q 648 1153 663 1209 q 583 1057 633 1097 q 476 1017 532 1017 m 815 1017 q 730 1057 759 1017 q 716 1153 701 1097 q 781 1249 731 1209 q 888 1289 831 1289 q 973 1249 944 1289 q 987 1153 1002 1209 q 922 1057 972 1097 q 815 1017 871 1017 z "},"°":{"ha":407,"x_min":363,"x_max":667,"o":"m 476 1017 q 392 1060 420 1017 q 379 1162 363 1103 q 447 1265 395 1223 q 554 1308 498 1308 q 638 1265 610 1308 q 650 1162 667 1223 q 584 1060 635 1103 q 476 1017 532 1017 z "},"´":{"ha":543,"x_min":340,"x_max":838,"o":"m 612 1017 l 340 1017 l 567 1356 l 838 1356 l 612 1017 z "},"µ":{"ha":800,"x_min":-37,"x_max":1068,"o":"m 399 475 q 479 271 344 271 q 670 475 615 271 l 797 949 l 1068 949 l 941 475 q 407 0 814 0 q 275 16 332 0 l 235 -136 l -37 -136 l 254 949 l 526 949 l 399 475 z "},"¸":{"ha":949,"x_min":267,"x_max":608,"o":"m 500 -71 q 584 -169 608 -79 q 422 -271 557 -271 l 267 -271 l 290 -182 l 446 -182 q 472 -169 469 -182 q 452 -160 475 -160 l 386 -160 l 402 -99 l 401 -99 l 432 18 l 522 18 l 500 -71 z "},"¿":{"ha":1017,"x_min":68,"x_max":1113,"o":"m 706 610 q 1033 311 1113 610 q 543 0 949 0 l 68 0 l 140 271 l 615 271 q 694 311 683 271 q 633 339 701 339 l 430 339 l 503 610 l 706 610 m 729 949 q 814 910 785 949 q 829 814 844 870 q 763 718 813 758 q 656 678 713 678 q 571 718 600 678 q 557 814 542 758 q 623 910 572 870 q 729 949 673 949 z "},"À":{"ha":1017,"x_min":0,"x_max":949,"o":"m 606 1356 l 877 1356 l 922 1017 l 650 1017 l 606 1356 m 355 136 l 271 0 l 0 0 l 593 949 l 865 949 l 949 0 l 678 0 l 667 136 l 355 136 m 652 407 l 638 610 l 516 407 l 652 407 z "},"Á":{"ha":1017,"x_min":0,"x_max":1071,"o":"m 844 1017 l 573 1017 l 800 1356 l 1071 1356 l 844 1017 m 355 136 l 271 0 l 0 0 l 593 949 l 865 949 l 949 0 l 678 0 l 667 136 l 355 136 m 652 407 l 638 610 l 516 407 l 652 407 z "},"Â":{"ha":1017,"x_min":0,"x_max":1086,"o":"m 1042 1356 l 1086 1017 l 815 1017 l 793 1187 l 680 1017 l 408 1017 l 635 1356 l 1042 1356 m 355 136 l 271 0 l 0 0 l 593 949 l 865 949 l 949 0 l 678 0 l 667 136 l 355 136 m 652 407 l 638 610 l 516 407 l 652 407 z "},"Ã":{"ha":1017,"x_min":0,"x_max":1183,"o":"m 414 1040 l 487 1311 q 682 1345 597 1345 q 826 1311 767 1345 q 918 1289 865 1289 q 1183 1379 1023 1289 l 1111 1107 q 846 1017 951 1017 q 753 1040 793 1017 q 610 1074 694 1074 q 414 1040 525 1074 m 355 136 l 271 0 l 0 0 l 593 949 l 865 949 l 949 0 l 678 0 l 667 136 l 355 136 m 652 407 l 638 610 l 516 407 l 652 407 z "},"Ä":{"ha":1017,"x_min":0,"x_max":1104,"o":"m 578 1017 q 492 1057 522 1017 q 479 1153 463 1097 q 544 1249 494 1209 q 650 1289 594 1289 q 736 1249 707 1289 q 750 1153 765 1209 q 684 1057 734 1097 q 578 1017 634 1017 m 917 1017 q 831 1057 861 1017 q 818 1153 802 1097 q 883 1249 833 1209 q 989 1289 933 1289 q 1075 1249 1046 1289 q 1089 1153 1104 1209 q 1023 1057 1074 1097 q 917 1017 973 1017 m 355 136 l 271 0 l 0 0 l 593 949 l 865 949 l 949 0 l 678 0 l 667 136 l 355 136 m 652 407 l 638 610 l 516 407 l 652 407 z "},"Å":{"ha":1017,"x_min":0,"x_max":1017,"o":"m 758 1055 q 840 1088 801 1055 q 891 1166 879 1120 q 882 1244 903 1212 q 818 1277 861 1277 q 735 1244 774 1277 q 684 1166 696 1212 q 693 1088 672 1120 q 758 1055 715 1055 m 731 957 q 604 1021 646 957 q 586 1175 562 1085 q 687 1329 610 1265 q 848 1393 763 1393 q 975 1329 932 1393 q 993 1175 1017 1265 q 892 1021 969 1085 q 731 957 815 957 m 355 136 l 271 0 l 0 0 l 593 949 l 865 949 l 949 0 l 678 0 l 667 136 l 355 136 m 652 407 l 638 610 l 516 407 l 652 407 z "},"Æ":{"ha":1492,"x_min":0,"x_max":1678,"o":"m 678 0 l 667 136 l 355 136 l 271 0 l 0 0 l 593 949 l 865 949 l 882 760 l 932 949 l 1678 949 l 1606 678 l 1131 678 l 1113 610 l 1588 610 l 1515 339 l 1040 339 l 1022 271 l 1497 271 l 1424 0 l 678 0 m 652 407 l 638 610 l 516 407 l 652 407 z "},"Ç":{"ha":949,"x_min":75,"x_max":1091,"o":"m 428 2 q 176 139 266 17 q 127 475 75 278 q 356 810 180 671 q 729 949 532 949 q 1027 810 926 949 q 1091 656 1079 741 l 812 540 q 784 618 810 583 q 656 678 741 678 q 497 618 572 678 q 399 475 421 559 q 419 331 376 391 q 547 271 463 271 q 707 331 631 271 q 774 404 749 363 l 994 294 q 848 139 937 209 q 518 1 691 16 l 498 -67 q 584 -169 608 -79 q 422 -271 557 -271 l 267 -271 l 290 -182 l 446 -182 q 472 -169 469 -182 q 385 -160 475 -160 l 401 -99 l 428 2 z "},"È":{"ha":882,"x_min":0,"x_max":1249,"o":"m 546 1356 l 817 1356 l 862 1017 l 591 1017 l 546 1356 m 1000 949 l 928 678 l 453 678 l 435 610 l 1249 610 l 1176 339 l 362 339 l 344 271 l 819 271 l 746 0 l 0 0 l 254 949 l 1000 949 z "},"É":{"ha":882,"x_min":0,"x_max":1249,"o":"m 779 1017 l 508 1017 l 734 1356 l 1006 1356 l 779 1017 m 1000 949 l 928 678 l 453 678 l 435 610 l 1249 610 l 1176 339 l 362 339 l 344 271 l 819 271 l 746 0 l 0 0 l 254 949 l 1000 949 z "},"Ê":{"ha":882,"x_min":0,"x_max":1249,"o":"m 974 1356 l 1019 1017 l 747 1017 l 725 1187 l 612 1017 l 340 1017 l 567 1356 l 974 1356 m 1000 949 l 928 678 l 453 678 l 435 610 l 1249 610 l 1176 339 l 362 339 l 344 271 l 819 271 l 746 0 l 0 0 l 254 949 l 1000 949 z "},"Ë":{"ha":882,"x_min":0,"x_max":1249,"o":"m 511 1017 q 425 1057 454 1017 q 412 1153 396 1097 q 477 1249 427 1209 q 583 1289 527 1289 q 669 1249 640 1289 q 683 1153 698 1209 q 617 1057 667 1097 q 511 1017 567 1017 m 850 1017 q 764 1057 793 1017 q 751 1153 735 1097 q 816 1249 766 1209 q 922 1289 866 1289 q 1008 1249 979 1289 q 1022 1153 1037 1209 q 956 1057 1006 1097 q 850 1017 906 1017 m 1000 949 l 928 678 l 453 678 l 435 610 l 1249 610 l 1176 339 l 362 339 l 344 271 l 819 271 l 746 0 l 0 0 l 254 949 l 1000 949 z "},"Ì":{"ha":339,"x_min":0,"x_max":612,"o":"m 526 949 l 271 0 l 0 0 l 254 949 l 526 949 m 296 1356 l 567 1356 l 612 1017 l 340 1017 l 296 1356 z "},"Í":{"ha":339,"x_min":0,"x_max":731,"o":"m 526 949 l 271 0 l 0 0 l 254 949 l 526 949 m 505 1017 l 233 1017 l 460 1356 l 731 1356 l 505 1017 z "},"Î":{"ha":339,"x_min":0,"x_max":747,"o":"m 526 949 l 271 0 l 0 0 l 254 949 l 526 949 m 703 1356 l 747 1017 l 476 1017 l 454 1187 l 340 1017 l 69 1017 l 296 1356 l 703 1356 z "},"Ï":{"ha":339,"x_min":0,"x_max":766,"o":"m 526 949 l 271 0 l 0 0 l 254 949 l 526 949 m 240 1017 q 155 1057 184 1017 q 141 1153 125 1097 q 206 1249 156 1209 q 313 1289 256 1289 q 398 1249 369 1289 q 412 1153 427 1209 q 347 1057 397 1097 q 240 1017 296 1017 m 579 1017 q 494 1057 523 1017 q 480 1153 465 1097 q 545 1249 495 1209 q 652 1289 595 1289 q 737 1249 708 1289 q 751 1153 766 1209 q 686 1057 736 1097 q 579 1017 635 1017 z "},"Ð":{"ha":949,"x_min":-113,"x_max":1136,"o":"m 362 339 l 344 271 l 547 271 q 738 475 683 271 q 656 678 792 678 l 453 678 l 435 610 l 638 610 l 566 339 l 362 339 m 163 610 l 254 949 l 729 949 q 1009 475 1136 949 q 475 0 882 0 l 0 0 l 91 339 l -113 339 l -40 610 l 163 610 z "},"Ñ":{"ha":949,"x_min":0,"x_max":1147,"o":"m 399 475 l 271 0 l 0 0 l 254 949 l 526 949 l 738 475 l 865 949 l 1136 949 l 882 0 l 610 0 l 399 475 m 378 1040 l 450 1311 q 646 1345 561 1345 q 789 1311 730 1345 q 882 1289 829 1289 q 1147 1379 987 1289 l 1074 1107 q 809 1017 914 1017 q 717 1040 756 1017 q 573 1074 658 1074 q 378 1040 488 1074 z "},"Ò":{"ha":1017,"x_min":75,"x_max":1129,"o":"m 475 0 q 176 139 278 0 q 127 475 75 278 q 356 810 180 671 q 729 949 532 949 q 1027 810 926 949 q 1077 475 1129 671 q 848 139 1024 278 q 475 0 671 0 m 547 271 q 707 331 631 271 q 806 475 783 391 q 784 618 828 559 q 656 678 741 678 q 497 618 572 678 q 399 475 421 559 q 419 331 376 391 q 547 271 463 271 m 606 1356 l 877 1356 l 922 1017 l 650 1017 l 606 1356 z "},"Ó":{"ha":1017,"x_min":75,"x_max":1129,"o":"m 475 0 q 176 139 278 0 q 127 475 75 278 q 356 810 180 671 q 729 949 532 949 q 1027 810 926 949 q 1077 475 1129 671 q 848 139 1024 278 q 475 0 671 0 m 547 271 q 707 331 631 271 q 806 475 783 391 q 784 618 828 559 q 656 678 741 678 q 497 618 572 678 q 399 475 421 559 q 419 331 376 391 q 547 271 463 271 m 844 1017 l 573 1017 l 800 1356 l 1071 1356 l 844 1017 z "},"Ô":{"ha":1017,"x_min":75,"x_max":1129,"o":"m 475 0 q 176 139 278 0 q 127 475 75 278 q 356 810 180 671 q 729 949 532 949 q 1027 810 926 949 q 1077 475 1129 671 q 848 139 1024 278 q 475 0 671 0 m 547 271 q 707 331 631 271 q 806 475 783 391 q 784 618 828 559 q 656 678 741 678 q 497 618 572 678 q 399 475 421 559 q 419 331 376 391 q 547 271 463 271 m 1042 1356 l 1086 1017 l 815 1017 l 793 1187 l 680 1017 l 408 1017 l 635 1356 l 1042 1356 z "},"Õ":{"ha":1017,"x_min":75,"x_max":1183,"o":"m 475 0 q 176 139 278 0 q 127 475 75 278 q 356 810 180 671 q 729 949 532 949 q 1027 810 926 949 q 1077 475 1129 671 q 848 139 1024 278 q 475 0 671 0 m 547 271 q 707 331 631 271 q 806 475 783 391 q 784 618 828 559 q 656 678 741 678 q 497 618 572 678 q 399 475 421 559 q 419 331 376 391 q 547 271 463 271 m 414 1040 l 487 1311 q 682 1345 597 1345 q 826 1311 767 1345 q 918 1289 865 1289 q 1183 1379 1023 1289 l 1111 1107 q 846 1017 951 1017 q 753 1040 793 1017 q 610 1074 694 1074 q 414 1040 525 1074 z "},"Ö":{"ha":1017,"x_min":75,"x_max":1129,"o":"m 475 0 q 176 139 278 0 q 127 475 75 278 q 356 810 180 671 q 729 949 532 949 q 1027 810 926 949 q 1077 475 1129 671 q 848 139 1024 278 q 475 0 671 0 m 547 271 q 707 331 631 271 q 806 475 783 391 q 784 618 828 559 q 656 678 741 678 q 497 618 572 678 q 399 475 421 559 q 419 331 376 391 q 547 271 463 271 m 578 1017 q 492 1057 522 1017 q 479 1153 463 1097 q 544 1249 494 1209 q 650 1289 594 1289 q 736 1249 707 1289 q 750 1153 765 1209 q 684 1057 734 1097 q 578 1017 634 1017 m 917 1017 q 831 1057 861 1017 q 818 1153 802 1097 q 883 1249 833 1209 q 989 1289 933 1289 q 1075 1249 1046 1289 q 1089 1153 1104 1209 q 1023 1057 1074 1097 q 917 1017 973 1017 z "},"×":{"ha":882,"x_min":92,"x_max":1032,"o":"m 492 245 l 399 136 l 92 136 l 406 475 l 275 814 l 581 814 l 617 703 l 722 813 l 1032 814 l 713 473 l 850 136 l 535 136 l 492 245 z "},"Ø":{"ha":1017,"x_min":-9,"x_max":1210,"o":"m 618 675 q 496 618 554 664 q 399 475 421 559 q 395 387 386 427 l 618 675 m 589 275 q 707 331 650 286 q 806 475 783 391 q 809 563 819 523 l 589 275 m 1013 829 q 1027 810 1021 820 q 1077 475 1129 671 q 848 139 1024 278 q 475 0 671 0 q 385 8 427 0 l 274 -136 l -9 -136 l 190 122 q 176 139 182 130 q 127 475 75 278 q 356 810 180 671 q 729 949 532 949 q 823 941 779 949 l 935 1085 l 1210 1085 l 1013 829 z "},"Ù":{"ha":882,"x_min":0,"x_max":1068,"o":"m 127 475 l 254 949 l 526 949 l 399 475 q 479 271 344 271 q 670 475 615 271 l 797 949 l 1068 949 l 941 475 q 407 0 814 0 q 127 475 0 0 m 541 1356 l 812 1356 l 857 1017 l 586 1017 l 541 1356 z "},"Ú":{"ha":882,"x_min":0,"x_max":1068,"o":"m 127 475 l 254 949 l 526 949 l 399 475 q 479 271 344 271 q 670 475 615 271 l 797 949 l 1068 949 l 941 475 q 407 0 814 0 q 127 475 0 0 m 778 1017 l 507 1017 l 733 1356 l 1004 1356 l 778 1017 z "},"Û":{"ha":882,"x_min":0,"x_max":1068,"o":"m 127 475 l 254 949 l 526 949 l 399 475 q 479 271 344 271 q 670 475 615 271 l 797 949 l 1068 949 l 941 475 q 407 0 814 0 q 127 475 0 0 m 974 1356 l 1019 1017 l 747 1017 l 725 1187 l 612 1017 l 340 1017 l 567 1356 l 974 1356 z "},"Ü":{"ha":882,"x_min":0,"x_max":1068,"o":"m 127 475 l 254 949 l 526 949 l 399 475 q 479 271 344 271 q 670 475 615 271 l 797 949 l 1068 949 l 941 475 q 407 0 814 0 q 127 475 0 0 m 509 1017 q 423 1057 452 1017 q 410 1153 394 1097 q 475 1249 425 1209 q 581 1289 525 1289 q 667 1249 637 1289 q 681 1153 696 1209 q 615 1057 665 1097 q 509 1017 565 1017 m 848 1017 q 762 1057 791 1017 q 749 1153 733 1097 q 814 1249 764 1209 q 920 1289 864 1289 q 1006 1249 977 1289 q 1020 1153 1035 1209 q 954 1057 1004 1097 q 848 1017 904 1017 z "},"Ý":{"ha":1017,"x_min":254,"x_max":1204,"o":"m 844 1017 l 573 1017 l 800 1356 l 1071 1356 l 844 1017 m 448 407 l 254 949 l 544 949 l 656 678 l 914 949 l 1204 949 l 720 407 l 610 0 l 339 0 l 448 407 z "},"Þ":{"ha":949,"x_min":0,"x_max":1100,"o":"m 416 543 l 380 407 l 584 407 q 738 475 720 407 q 620 543 755 543 l 416 543 m 254 949 l 526 949 l 490 814 l 693 814 q 1009 475 1100 814 q 511 136 918 136 l 308 136 l 271 0 l 0 0 l 254 949 z "},"ß":{"ha":848,"x_min":0,"x_max":1136,"o":"m 538 237 l 546 237 q 692 303 674 237 q 576 379 711 374 l 629 575 l 641 575 q 783 642 764 575 q 668 722 804 720 l 465 722 l 271 0 l 0 0 l 254 949 l 729 949 q 1054 644 1136 949 q 873 475 1009 475 q 962 301 1009 475 q 475 0 882 0 l 474 0 l 538 237 z "},"à":{"ha":1017,"x_min":0,"x_max":949,"o":"m 606 1356 l 877 1356 l 922 1017 l 650 1017 l 606 1356 m 355 136 l 271 0 l 0 0 l 593 949 l 865 949 l 949 0 l 678 0 l 667 136 l 355 136 m 652 407 l 638 610 l 516 407 l 652 407 z "},"á":{"ha":1017,"x_min":0,"x_max":1071,"o":"m 844 1017 l 573 1017 l 800 1356 l 1071 1356 l 844 1017 m 355 136 l 271 0 l 0 0 l 593 949 l 865 949 l 949 0 l 678 0 l 667 136 l 355 136 m 652 407 l 638 610 l 516 407 l 652 407 z "},"â":{"ha":1017,"x_min":0,"x_max":1086,"o":"m 1042 1356 l 1086 1017 l 815 1017 l 793 1187 l 680 1017 l 408 1017 l 635 1356 l 1042 1356 m 355 136 l 271 0 l 0 0 l 593 949 l 865 949 l 949 0 l 678 0 l 667 136 l 355 136 m 652 407 l 638 610 l 516 407 l 652 407 z "},"ã":{"ha":1017,"x_min":0,"x_max":1183,"o":"m 414 1040 l 487 1311 q 682 1345 597 1345 q 826 1311 767 1345 q 918 1289 865 1289 q 1183 1379 1023 1289 l 1111 1107 q 846 1017 951 1017 q 753 1040 793 1017 q 610 1074 694 1074 q 414 1040 525 1074 m 355 136 l 271 0 l 0 0 l 593 949 l 865 949 l 949 0 l 678 0 l 667 136 l 355 136 m 652 407 l 638 610 l 516 407 l 652 407 z "},"ä":{"ha":1017,"x_min":0,"x_max":1104,"o":"m 578 1017 q 492 1057 522 1017 q 479 1153 463 1097 q 544 1249 494 1209 q 650 1289 594 1289 q 736 1249 707 1289 q 750 1153 765 1209 q 684 1057 734 1097 q 578 1017 634 1017 m 917 1017 q 831 1057 861 1017 q 818 1153 802 1097 q 883 1249 833 1209 q 989 1289 933 1289 q 1075 1249 1046 1289 q 1089 1153 1104 1209 q 1023 1057 1074 1097 q 917 1017 973 1017 m 355 136 l 271 0 l 0 0 l 593 949 l 865 949 l 949 0 l 678 0 l 667 136 l 355 136 m 652 407 l 638 610 l 516 407 l 652 407 z "},"å":{"ha":1017,"x_min":0,"x_max":1017,"o":"m 758 1055 q 840 1088 801 1055 q 891 1166 879 1120 q 882 1244 903 1212 q 818 1277 861 1277 q 735 1244 774 1277 q 684 1166 696 1212 q 693 1088 672 1120 q 758 1055 715 1055 m 731 957 q 604 1021 646 957 q 586 1175 562 1085 q 687 1329 610 1265 q 848 1393 763 1393 q 975 1329 932 1393 q 993 1175 1017 1265 q 892 1021 969 1085 q 731 957 815 957 m 355 136 l 271 0 l 0 0 l 593 949 l 865 949 l 949 0 l 678 0 l 667 136 l 355 136 m 652 407 l 638 610 l 516 407 l 652 407 z "},"æ":{"ha":1492,"x_min":0,"x_max":1678,"o":"m 678 0 l 667 136 l 355 136 l 271 0 l 0 0 l 593 949 l 865 949 l 882 760 l 932 949 l 1678 949 l 1606 678 l 1131 678 l 1113 610 l 1588 610 l 1515 339 l 1040 339 l 1022 271 l 1497 271 l 1424 0 l 678 0 m 652 407 l 638 610 l 516 407 l 652 407 z "},"ç":{"ha":1017,"x_min":75,"x_max":1091,"o":"m 428 2 q 176 139 266 17 q 127 475 75 278 q 356 810 180 671 q 729 949 532 949 q 1027 810 926 949 q 1091 656 1079 741 l 812 540 q 784 618 810 583 q 656 678 741 678 q 497 618 572 678 q 399 475 421 559 q 419 331 376 391 q 547 271 463 271 q 707 331 631 271 q 774 404 749 363 l 994 294 q 848 139 937 209 q 518 1 691 16 l 498 -67 q 584 -169 608 -79 q 422 -271 557 -271 l 267 -271 l 290 -182 l 446 -182 q 472 -169 469 -182 q 385 -160 475 -160 l 401 -99 l 428 2 z "},"è":{"ha":882,"x_min":0,"x_max":1249,"o":"m 546 1356 l 817 1356 l 862 1017 l 591 1017 l 546 1356 m 1000 949 l 928 678 l 453 678 l 435 610 l 1249 610 l 1176 339 l 362 339 l 344 271 l 819 271 l 746 0 l 0 0 l 254 949 l 1000 949 z "},"é":{"ha":882,"x_min":0,"x_max":1249,"o":"m 779 1017 l 508 1017 l 734 1356 l 1006 1356 l 779 1017 m 1000 949 l 928 678 l 453 678 l 435 610 l 1249 610 l 1176 339 l 362 339 l 344 271 l 819 271 l 746 0 l 0 0 l 254 949 l 1000 949 z "},"ê":{"ha":882,"x_min":0,"x_max":1249,"o":"m 974 1356 l 1019 1017 l 747 1017 l 725 1187 l 612 1017 l 340 1017 l 567 1356 l 974 1356 m 1000 949 l 928 678 l 453 678 l 435 610 l 1249 610 l 1176 339 l 362 339 l 344 271 l 819 271 l 746 0 l 0 0 l 254 949 l 1000 949 z "},"ë":{"ha":882,"x_min":0,"x_max":1249,"o":"m 511 1017 q 425 1057 454 1017 q 412 1153 396 1097 q 477 1249 427 1209 q 583 1289 527 1289 q 669 1249 640 1289 q 683 1153 698 1209 q 617 1057 667 1097 q 511 1017 567 1017 m 850 1017 q 764 1057 793 1017 q 751 1153 735 1097 q 816 1249 766 1209 q 922 1289 866 1289 q 1008 1249 979 1289 q 1022 1153 1037 1209 q 956 1057 1006 1097 q 850 1017 906 1017 m 1000 949 l 928 678 l 453 678 l 435 610 l 1249 610 l 1176 339 l 362 339 l 344 271 l 819 271 l 746 0 l 0 0 l 254 949 l 1000 949 z "},"ì":{"ha":339,"x_min":0,"x_max":612,"o":"m 526 949 l 271 0 l 0 0 l 254 949 l 526 949 m 296 1356 l 567 1356 l 612 1017 l 340 1017 l 296 1356 z "},"í":{"ha":339,"x_min":0,"x_max":731,"o":"m 526 949 l 271 0 l 0 0 l 254 949 l 526 949 m 505 1017 l 233 1017 l 460 1356 l 731 1356 l 505 1017 z "},"î":{"ha":339,"x_min":0,"x_max":747,"o":"m 526 949 l 271 0 l 0 0 l 254 949 l 526 949 m 703 1356 l 747 1017 l 476 1017 l 454 1187 l 340 1017 l 69 1017 l 296 1356 l 703 1356 z "},"ï":{"ha":339,"x_min":0,"x_max":766,"o":"m 526 949 l 271 0 l 0 0 l 254 949 l 526 949 m 240 1017 q 155 1057 184 1017 q 141 1153 125 1097 q 206 1249 156 1209 q 313 1289 256 1289 q 398 1249 369 1289 q 412 1153 427 1209 q 347 1057 397 1097 q 240 1017 296 1017 m 579 1017 q 494 1057 523 1017 q 480 1153 465 1097 q 545 1249 495 1209 q 652 1289 595 1289 q 737 1249 708 1289 q 751 1153 766 1209 q 686 1057 736 1097 q 579 1017 635 1017 z "},"ð":{"ha":1017,"x_min":75,"x_max":1129,"o":"m 707 331 q 745 361 707 331 q 806 475 783 391 q 784 618 828 559 q 656 678 741 678 q 497 618 572 678 q 399 475 421 559 q 419 331 376 391 q 547 271 463 271 q 707 331 631 271 m 768 1163 q 1027 810 1002 846 q 1077 475 1129 671 q 848 139 1024 278 q 475 0 671 0 q 176 139 278 0 q 127 475 75 278 q 356 810 180 671 q 567 928 449 884 l 530 974 l 414 882 l 281 1048 l 404 1152 l 334 1239 l 564 1424 l 635 1333 l 745 1424 l 878 1252 l 768 1163 z "},"ñ":{"ha":949,"x_min":0,"x_max":1147,"o":"m 399 475 l 271 0 l 0 0 l 254 949 l 526 949 l 738 475 l 865 949 l 1136 949 l 882 0 l 610 0 l 399 475 m 378 1040 l 450 1311 q 646 1345 561 1345 q 789 1311 730 1345 q 882 1289 829 1289 q 1147 1379 987 1289 l 1074 1107 q 809 1017 914 1017 q 717 1040 756 1017 q 573 1074 658 1074 q 378 1040 488 1074 z "},"ò":{"ha":1017,"x_min":75,"x_max":1129,"o":"m 475 0 q 176 139 278 0 q 127 475 75 278 q 356 810 180 671 q 729 949 532 949 q 1027 810 926 949 q 1077 475 1129 671 q 848 139 1024 278 q 475 0 671 0 m 547 271 q 707 331 631 271 q 806 475 783 391 q 784 618 828 559 q 656 678 741 678 q 497 618 572 678 q 399 475 421 559 q 419 331 376 391 q 547 271 463 271 m 606 1356 l 877 1356 l 922 1017 l 650 1017 l 606 1356 z "},"ó":{"ha":1017,"x_min":75,"x_max":1129,"o":"m 475 0 q 176 139 278 0 q 127 475 75 278 q 356 810 180 671 q 729 949 532 949 q 1027 810 926 949 q 1077 475 1129 671 q 848 139 1024 278 q 475 0 671 0 m 547 271 q 707 331 631 271 q 806 475 783 391 q 784 618 828 559 q 656 678 741 678 q 497 618 572 678 q 399 475 421 559 q 419 331 376 391 q 547 271 463 271 m 844 1017 l 573 1017 l 800 1356 l 1071 1356 l 844 1017 z "},"ô":{"ha":1017,"x_min":75,"x_max":1129,"o":"m 475 0 q 176 139 278 0 q 127 475 75 278 q 356 810 180 671 q 729 949 532 949 q 1027 810 926 949 q 1077 475 1129 671 q 848 139 1024 278 q 475 0 671 0 m 547 271 q 707 331 631 271 q 806 475 783 391 q 784 618 828 559 q 656 678 741 678 q 497 618 572 678 q 399 475 421 559 q 419 331 376 391 q 547 271 463 271 m 1042 1356 l 1086 1017 l 815 1017 l 793 1187 l 680 1017 l 408 1017 l 635 1356 l 1042 1356 z "},"õ":{"ha":1017,"x_min":75,"x_max":1183,"o":"m 475 0 q 176 139 278 0 q 127 475 75 278 q 356 810 180 671 q 729 949 532 949 q 1027 810 926 949 q 1077 475 1129 671 q 848 139 1024 278 q 475 0 671 0 m 547 271 q 707 331 631 271 q 806 475 783 391 q 784 618 828 559 q 656 678 741 678 q 497 618 572 678 q 399 475 421 559 q 419 331 376 391 q 547 271 463 271 m 414 1040 l 487 1311 q 682 1345 597 1345 q 826 1311 767 1345 q 918 1289 865 1289 q 1183 1379 1023 1289 l 1111 1107 q 846 1017 951 1017 q 753 1040 793 1017 q 610 1074 694 1074 q 414 1040 525 1074 z "},"ö":{"ha":1017,"x_min":75,"x_max":1129,"o":"m 475 0 q 176 139 278 0 q 127 475 75 278 q 356 810 180 671 q 729 949 532 949 q 1027 810 926 949 q 1077 475 1129 671 q 848 139 1024 278 q 475 0 671 0 m 547 271 q 707 331 631 271 q 806 475 783 391 q 784 618 828 559 q 656 678 741 678 q 497 618 572 678 q 399 475 421 559 q 419 331 376 391 q 547 271 463 271 m 578 1017 q 492 1057 522 1017 q 479 1153 463 1097 q 544 1249 494 1209 q 650 1289 594 1289 q 736 1249 707 1289 q 750 1153 765 1209 q 684 1057 734 1097 q 578 1017 634 1017 m 917 1017 q 831 1057 861 1017 q 818 1153 802 1097 q 883 1249 833 1209 q 989 1289 933 1289 q 1075 1249 1046 1289 q 1089 1153 1104 1209 q 1023 1057 1074 1097 q 917 1017 973 1017 z "},"÷":{"ha":814,"x_min":159,"x_max":909,"o":"m 909 610 l 837 339 l 159 339 l 231 610 l 909 610 m 589 678 q 503 718 532 678 q 490 814 474 758 q 555 910 505 870 q 661 949 605 949 q 747 910 718 949 q 761 814 776 870 q 695 718 745 758 q 589 678 645 678 m 407 0 q 321 40 351 0 q 308 136 292 79 q 373 232 323 192 q 479 271 423 271 q 565 232 536 271 q 579 136 594 192 q 513 40 564 79 q 407 0 463 0 z "},"ø":{"ha":1017,"x_min":-9,"x_max":1210,"o":"m 1013 829 q 1027 810 1021 820 q 1077 475 1129 671 q 848 139 1024 278 q 475 0 671 0 q 385 8 427 0 l 274 -136 l -9 -136 l 190 122 q 176 139 182 130 q 127 475 75 278 q 356 810 180 671 q 729 949 532 949 q 823 941 779 949 l 935 1085 l 1210 1085 l 1013 829 m 618 675 q 496 618 554 664 q 399 475 421 559 q 395 387 386 427 l 618 675 m 589 275 q 707 331 650 286 q 806 475 783 391 q 809 563 819 523 l 589 275 z "},"ù":{"ha":882,"x_min":0,"x_max":1068,"o":"m 127 475 l 254 949 l 526 949 l 399 475 q 479 271 344 271 q 670 475 615 271 l 797 949 l 1068 949 l 941 475 q 407 0 814 0 q 127 475 0 0 m 541 1356 l 812 1356 l 857 1017 l 586 1017 l 541 1356 z "},"ú":{"ha":882,"x_min":0,"x_max":1068,"o":"m 127 475 l 254 949 l 526 949 l 399 475 q 479 271 344 271 q 670 475 615 271 l 797 949 l 1068 949 l 941 475 q 407 0 814 0 q 127 475 0 0 m 778 1017 l 507 1017 l 733 1356 l 1004 1356 l 778 1017 z "},"û":{"ha":882,"x_min":0,"x_max":1068,"o":"m 127 475 l 254 949 l 526 949 l 399 475 q 479 271 344 271 q 670 475 615 271 l 797 949 l 1068 949 l 941 475 q 407 0 814 0 q 127 475 0 0 m 974 1356 l 1019 1017 l 747 1017 l 725 1187 l 612 1017 l 340 1017 l 567 1356 l 974 1356 z "},"ü":{"ha":882,"x_min":0,"x_max":1068,"o":"m 127 475 l 254 949 l 526 949 l 399 475 q 479 271 344 271 q 670 475 615 271 l 797 949 l 1068 949 l 941 475 q 407 0 814 0 q 127 475 0 0 m 509 1017 q 423 1057 452 1017 q 410 1153 394 1097 q 475 1249 425 1209 q 581 1289 525 1289 q 667 1249 637 1289 q 681 1153 696 1209 q 615 1057 665 1097 q 509 1017 565 1017 m 848 1017 q 762 1057 791 1017 q 749 1153 733 1097 q 814 1249 764 1209 q 920 1289 864 1289 q 1006 1249 977 1289 q 1020 1153 1035 1209 q 954 1057 1004 1097 q 848 1017 904 1017 z "},"ý":{"ha":1017,"x_min":254,"x_max":1204,"o":"m 844 1017 l 573 1017 l 800 1356 l 1071 1356 l 844 1017 m 448 407 l 254 949 l 544 949 l 656 678 l 914 949 l 1204 949 l 720 407 l 610 0 l 339 0 l 448 407 z "},"þ":{"ha":949,"x_min":0,"x_max":1100,"o":"m 254 949 l 526 949 l 490 814 l 693 814 q 1009 475 1100 814 q 511 136 918 136 l 308 136 l 271 0 l 0 0 l 254 949 m 416 543 l 380 407 l 584 407 q 738 475 720 407 q 620 543 755 543 l 416 543 z "},"ÿ":{"ha":1017,"x_min":254,"x_max":1204,"o":"m 448 407 l 254 949 l 544 949 l 656 678 l 914 949 l 1204 949 l 720 407 l 610 0 l 339 0 l 448 407 m 580 1017 q 494 1057 524 1017 q 481 1153 465 1097 q 546 1249 496 1209 q 652 1289 596 1289 q 738 1249 709 1289 q 752 1153 767 1209 q 686 1057 736 1097 q 580 1017 636 1017 m 919 1017 q 833 1057 863 1017 q 820 1153 804 1097 q 885 1249 835 1209 q 991 1289 935 1289 q 1077 1249 1048 1289 q 1091 1153 1106 1209 q 1025 1057 1076 1097 q 919 1017 975 1017 z "},"ı":{"ha":339,"x_min":0,"x_max":526,"o":"m 526 949 l 271 0 l 0 0 l 254 949 l 526 949 z "},"ˆ":{"ha":746,"x_min":273,"x_max":951,"o":"m 906 1356 l 951 1017 l 680 1017 l 657 1187 l 544 1017 l 273 1017 l 499 1356 l 906 1356 z "},"ˇ":{"ha":746,"x_min":363,"x_max":1042,"o":"m 657 1187 l 770 1356 l 1042 1356 l 815 1017 l 408 1017 l 363 1356 l 635 1356 l 657 1187 z "},"ˉ":{"ha":610,"x_min":273,"x_max":888,"o":"m 888 1289 l 815 1017 l 273 1017 l 345 1289 l 888 1289 z "},"˘":{"ha":746,"x_min":363,"x_max":1042,"o":"m 363 1356 l 635 1356 q 675 1255 642 1255 q 770 1356 709 1255 l 1042 1356 q 612 1017 781 1017 q 363 1356 442 1017 z "},"˙":{"ha":407,"x_min":363,"x_max":667,"o":"m 476 1017 q 392 1060 420 1017 q 379 1162 363 1103 q 447 1265 395 1223 q 554 1308 498 1308 q 638 1265 610 1308 q 650 1162 667 1223 q 584 1060 635 1103 q 476 1017 532 1017 z "},"˚":{"ha":475,"x_min":298,"x_max":753,"o":"m 494 1057 q 576 1090 537 1057 q 627 1168 614 1122 q 618 1246 640 1214 q 553 1279 596 1279 q 471 1246 510 1279 q 420 1168 433 1214 q 429 1090 408 1122 q 494 1057 451 1057 m 467 959 q 340 1023 382 959 q 322 1177 298 1087 q 423 1331 347 1267 q 584 1395 499 1395 q 711 1331 668 1395 q 729 1177 753 1267 q 628 1023 705 1087 q 467 959 551 959 z "},"˛":{"ha":949,"x_min":291,"x_max":587,"o":"m 516 -237 q 408 -277 465 -277 q 320 -237 350 -277 q 306 -138 291 -196 q 373 -41 321 -81 q 482 0 425 0 q 569 -41 539 0 q 587 -85 584 -61 l 507 -119 q 498 -97 506 -107 q 461 -79 486 -79 q 414 -97 436 -79 q 385 -138 392 -114 q 391 -181 378 -163 q 429 -198 404 -198 q 475 -180 454 -198 q 495 -159 487 -171 l 559 -192 q 516 -237 543 -216 z "},"˜":{"ha":694,"x_min":279,"x_max":1048,"o":"m 279 1040 l 351 1311 q 547 1345 462 1345 q 690 1311 631 1345 q 783 1289 730 1289 q 1048 1379 888 1289 l 975 1107 q 710 1017 815 1017 q 618 1040 657 1017 q 474 1074 559 1074 q 279 1040 389 1074 z "},"˝":{"ha":882,"x_min":163,"x_max":1031,"o":"m 435 610 l 163 610 l 390 949 l 661 949 l 435 610 m 805 610 l 534 610 l 760 949 l 1031 949 l 805 610 z "},"–":{"ha":746,"x_min":91,"x_max":842,"o":"m 842 610 l 769 339 l 91 339 l 163 610 l 842 610 z "},"—":{"ha":1356,"x_min":91,"x_max":1451,"o":"m 1451 610 l 1379 339 l 91 339 l 163 610 l 1451 610 z "},"‘":{"ha":407,"x_min":213,"x_max":593,"o":"m 593 949 l 484 543 l 213 543 l 322 949 l 593 949 z "},"’":{"ha":407,"x_min":213,"x_max":593,"o":"m 593 949 l 484 543 l 213 543 l 322 949 l 593 949 z "},"‚":{"ha":407,"x_min":-5,"x_max":376,"o":"m 376 136 l 267 -271 l -5 -271 l 104 136 l 376 136 z "},"“":{"ha":746,"x_min":213,"x_max":932,"o":"m 593 949 l 484 543 l 213 543 l 322 949 l 593 949 m 932 949 l 823 543 l 552 543 l 661 949 l 932 949 z "},"”":{"ha":746,"x_min":213,"x_max":932,"o":"m 593 949 l 484 543 l 213 543 l 322 949 l 593 949 m 932 949 l 823 543 l 552 543 l 661 949 l 932 949 z "},"„":{"ha":746,"x_min":-5,"x_max":715,"o":"m 376 136 l 267 -271 l -5 -271 l 104 136 l 376 136 m 715 136 l 606 -271 l 334 -271 l 444 136 l 715 136 z "},"•":{"ha":407,"x_min":180,"x_max":481,"o":"m 294 339 q 209 379 238 339 q 195 475 180 418 q 260 571 210 531 q 367 610 311 610 q 452 571 423 610 q 467 475 481 531 q 401 379 451 418 q 294 339 351 339 z "},"…":{"ha":1221,"x_min":89,"x_max":1204,"o":"m 1017 0 q 932 40 961 0 q 918 136 903 79 q 983 232 933 192 q 1090 271 1034 271 q 1175 232 1146 271 q 1190 136 1204 192 q 1124 40 1174 79 q 1017 0 1074 0 m 610 0 q 525 40 554 0 q 511 136 496 79 q 576 232 526 192 q 683 271 627 271 q 768 232 739 271 q 783 136 798 192 q 717 40 767 79 q 610 0 667 0 m 203 0 q 118 40 147 0 q 104 136 89 79 q 170 232 119 192 q 276 271 220 271 q 361 232 332 271 q 376 136 391 192 q 310 40 360 79 q 203 0 260 0 z "},"‹":{"ha":882,"x_min":159,"x_max":1068,"o":"m 231 610 l 1068 949 l 996 678 l 467 475 l 886 271 l 814 0 l 159 339 l 231 610 z "},"›":{"ha":882,"x_min":68,"x_max":977,"o":"m 905 339 l 68 0 l 140 271 l 670 475 l 250 678 l 322 949 l 977 610 l 905 339 z "},"€":{"ha":1153,"x_min":159,"x_max":1227,"o":"m 550 339 q 555 331 552 335 q 683 271 599 271 q 843 331 767 271 q 910 404 884 363 l 1129 294 q 983 139 1072 209 q 610 0 807 0 q 312 139 414 0 q 245 339 248 227 l 159 339 l 231 610 l 317 610 q 492 810 380 722 q 865 949 668 949 q 1163 810 1061 949 q 1227 656 1215 741 l 948 540 q 920 618 945 583 q 792 678 876 678 q 632 618 708 678 q 623 610 627 614 l 842 610 l 769 339 l 550 339 z "},"™":{"ha":882,"x_min":296,"x_max":1050,"o":"m 502 853 l 437 610 l 340 610 l 405 853 l 296 853 l 322 950 l 637 950 l 612 853 l 502 853 m 1050 950 l 960 610 l 863 610 l 906 772 l 814 610 l 717 610 l 712 772 l 669 610 l 572 610 l 663 950 l 783 950 l 805 756 l 929 950 l 1050 950 z "},"−":{"ha":814,"x_min":159,"x_max":909,"o":"m 909 610 l 837 339 l 159 339 l 231 610 l 909 610 z "},"Œ":{"ha":1628,"x_min":75,"x_max":1994,"o":"m 707 331 q 745 361 707 331 q 806 475 783 391 q 784 618 828 559 q 656 678 741 678 q 497 618 572 678 q 399 475 421 559 q 419 331 376 391 q 547 271 463 271 q 707 331 631 271 m 768 84 q 475 0 628 0 q 176 139 278 0 q 127 475 75 278 q 356 810 180 671 q 729 949 532 949 q 978 865 882 949 l 1000 949 l 1746 949 l 1674 678 l 1199 678 l 1181 610 l 1994 610 l 1922 339 l 1108 339 l 1090 271 l 1565 271 l 1492 0 l 746 0 l 768 84 z "},"œ":{"ha":1628,"x_min":75,"x_max":1994,"o":"m 707 331 q 745 361 707 331 q 806 475 783 391 q 784 618 828 559 q 656 678 741 678 q 497 618 572 678 q 399 475 421 559 q 419 331 376 391 q 547 271 463 271 q 707 331 631 271 m 768 84 q 475 0 628 0 q 176 139 278 0 q 127 475 75 278 q 356 810 180 671 q 729 949 532 949 q 978 865 882 949 l 1000 949 l 1746 949 l 1674 678 l 1199 678 l 1181 610 l 1994 610 l 1922 339 l 1108 339 l 1090 271 l 1565 271 l 1492 0 l 746 0 l 768 84 z "}}}
